<svg width="35" height="35" viewBox="0 0 35 35" fill="none" xmlns="http://www.w3.org/2000/svg">
<path d="M14.9741 30.625C15.2301 31.0684 15.5983 31.4365 16.0417 31.6925C16.4851 31.9484 16.988 32.0832 17.5 32.0832C18.0119 32.0832 18.5149 31.9484 18.9582 31.6925C19.4016 31.4365 19.7698 31.0684 20.0258 30.625M4.75706 22.3504C4.56655 22.5592 4.44082 22.8189 4.39518 23.0978C4.34953 23.3768 4.38594 23.663 4.49996 23.9216C4.61398 24.1803 4.80071 24.4002 5.03743 24.5546C5.27415 24.7091 5.55065 24.7915 5.83331 24.7917H29.1666C29.4493 24.7918 29.7258 24.7097 29.9627 24.5556C30.1996 24.4014 30.3865 24.1817 30.5008 23.9232C30.6152 23.6648 30.6519 23.3787 30.6067 23.0997C30.5614 22.8207 30.436 22.5609 30.2458 22.3519C28.3062 20.3525 26.25 18.2277 26.25 11.6667C26.25 9.34602 25.3281 7.12042 23.6872 5.47948C22.0462 3.83854 19.8206 2.91667 17.5 2.91667C15.1793 2.91667 12.9537 3.83854 11.3128 5.47948C9.67184 7.12042 8.74997 9.34602 8.74997 11.6667C8.74997 18.2277 6.69226 20.3525 4.75706 22.3504Z" stroke="#1F2937" stroke-width="2" stroke-linecap="round" stroke-linejoin="round"/>
</svg>
