<svg width="27" height="27" viewBox="0 0 27 27" fill="none" xmlns="http://www.w3.org/2000/svg">
<path d="M2.23961 18.9271C2.42341 19.3908 2.46433 19.8988 2.35711 20.3859L1.02586 24.4984C0.982969 24.7069 0.99406 24.923 1.05808 25.1261C1.12211 25.3291 1.23694 25.5125 1.3917 25.6587C1.54645 25.805 1.736 25.9092 1.94236 25.9617C2.14873 26.0141 2.36507 26.013 2.57086 25.9584L6.83711 24.7109C7.29676 24.6197 7.77277 24.6595 8.21086 24.8259C10.8801 26.0724 13.9038 26.3361 16.7486 25.5705C19.5933 24.8049 22.0762 23.0592 23.7592 20.6413C25.4423 18.2235 26.2173 15.2889 25.9475 12.3553C25.6777 9.42173 24.3805 6.6777 22.2847 4.60736C20.1889 2.53702 17.4292 1.27342 14.4926 1.03949C11.5559 0.805561 8.63103 1.61634 6.23392 3.32879C3.8368 5.04124 2.12153 7.54529 1.39073 10.3992C0.659933 13.253 0.960575 16.2733 2.23961 18.9271Z" stroke="#000080" stroke-width="2" stroke-linecap="round" stroke-linejoin="round"/>
</svg>
