<svg width="27" height="24" viewBox="0 0 27 24" fill="none" xmlns="http://www.w3.org/2000/svg">
<path d="M13.5 5.88889V23M13.5 5.88889C13.5 4.59227 12.9732 3.34877 12.0355 2.43192C11.0979 1.51508 9.82608 1 8.5 1H2.25C1.91848 1 1.60054 1.12877 1.36612 1.35798C1.1317 1.58719 1 1.89807 1 2.22222V18.1111C1 18.4353 1.1317 18.7461 1.36612 18.9754C1.60054 19.2046 1.91848 19.3333 2.25 19.3333H9.75C10.7446 19.3333 11.6984 19.7196 12.4017 20.4073C13.1049 21.0949 13.5 22.0275 13.5 23M13.5 5.88889C13.5 4.59227 14.0268 3.34877 14.9645 2.43192C15.9021 1.51508 17.1739 1 18.5 1H24.75C25.0815 1 25.3995 1.12877 25.6339 1.35798C25.8683 1.58719 26 1.89807 26 2.22222V18.1111C26 18.4353 25.8683 18.7461 25.6339 18.9754C25.3995 19.2046 25.0815 19.3333 24.75 19.3333H17.25C16.2554 19.3333 15.3016 19.7196 14.5983 20.4073C13.8951 21.0949 13.5 22.0275 13.5 23M18.5 12H21M18.5 7.11111H21M6 12H8.5M6 7.11111H8.5" stroke="#000080" stroke-width="2" stroke-linecap="round" stroke-linejoin="round"/>
</svg>
