<svg width="22" height="20" viewBox="0 0 22 20" fill="none" xmlns="http://www.w3.org/2000/svg">
<g clip-path="url(#clip0_602_12)">
<path d="M21.1944 7.55745L14.2415 1.23578C13.381 0.455774 12.2154 0.0177612 11.0002 0.0177612C9.785 0.0177612 8.61939 0.455774 7.75886 1.23578L0.805944 7.55745C0.549667 7.78894 0.346483 8.06437 0.20817 8.36777C0.0698564 8.67118 -0.000834762 8.99652 0.000194178 9.32495V17.5058C0.000194178 18.1688 0.289926 18.8047 0.805651 19.2736C1.32138 19.7424 2.02085 20.0058 2.75019 20.0058H19.2502C19.9795 20.0058 20.679 19.7424 21.1947 19.2736C21.7105 18.8047 22.0002 18.1688 22.0002 17.5058V9.32495C22.0012 8.99652 21.9305 8.67118 21.7922 8.36777C21.6539 8.06437 21.4507 7.78894 21.1944 7.55745ZM13.7502 18.3391H8.2502V15.0608C8.2502 14.3977 8.53993 13.7619 9.05565 13.293C9.57138 12.8242 10.2709 12.5608 11.0002 12.5608C11.7295 12.5608 12.429 12.8242 12.9447 13.293C13.4605 13.7619 13.7502 14.3977 13.7502 15.0608V18.3391ZM20.1669 17.5058C20.1669 17.7268 20.0703 17.9388 19.8984 18.095C19.7265 18.2513 19.4933 18.3391 19.2502 18.3391H15.5835V15.0608C15.5835 13.9557 15.1006 12.8959 14.2411 12.1145C13.3816 11.3331 12.2158 10.8941 11.0002 10.8941C9.78462 10.8941 8.61883 11.3331 7.75929 12.1145C6.89975 12.8959 6.41686 13.9557 6.41686 15.0608V18.3391H2.75019C2.50708 18.3391 2.27392 18.2513 2.10201 18.095C1.9301 17.9388 1.83353 17.7268 1.83353 17.5058V9.32495C1.83438 9.1041 1.93087 8.89244 2.10211 8.73578L9.05503 2.41662C9.57175 1.94906 10.2711 1.68657 11.0002 1.68657C11.7293 1.68657 12.4286 1.94906 12.9454 2.41662L19.8983 8.73828C20.0689 8.89432 20.1653 9.10497 20.1669 9.32495V17.5058Z" fill="white"/>
</g>
<defs>
<clipPath id="clip0_602_12">
<rect width="22" height="20" fill="white"/>
</clipPath>
</defs>
</svg>
