<svg width="27" height="27" viewBox="0 0 27 27" fill="none" xmlns="http://www.w3.org/2000/svg">
<path d="M18.8 8.2L16.545 14.9637C16.4223 15.332 16.2155 15.6666 15.941 15.941C15.6666 16.2155 15.332 16.4223 14.9637 16.545L8.2 18.8L10.455 12.0363C10.5777 11.668 10.7845 11.3334 11.059 11.059C11.3334 10.7845 11.668 10.5777 12.0363 10.455L18.8 8.2Z" stroke="#000080" stroke-width="2" stroke-linecap="round" stroke-linejoin="round"/>
<path d="M13.5 26C20.4036 26 26 20.4036 26 13.5C26 6.59644 20.4036 1 13.5 1C6.59644 1 1 6.59644 1 13.5C1 20.4036 6.59644 26 13.5 26Z" stroke="#000080" stroke-width="2" stroke-linecap="round" stroke-linejoin="round"/>
</svg>
