<svg width="10" height="9" viewBox="0 0 10 9" fill="none" xmlns="http://www.w3.org/2000/svg">
<path d="M5 9L4.275 8.3624C3.43333 7.61853 2.7375 6.97684 2.1875 6.43733C1.6375 5.89782 1.2 5.41349 0.875 4.98433C0.55 4.55518 0.322917 4.16076 0.19375 3.80109C0.0645833 3.44142 0 3.07357 0 2.69755C0 1.92916 0.2625 1.28747 0.7875 0.77248C1.3125 0.257493 1.96667 0 2.75 0C3.18333 0 3.59583 0.0899183 3.9875 0.269755C4.37917 0.449591 4.71667 0.702997 5 1.02997C5.28333 0.702997 5.62083 0.449591 6.0125 0.269755C6.40417 0.0899183 6.81667 0 7.25 0C8.03333 0 8.6875 0.257493 9.2125 0.77248C9.7375 1.28747 10 1.92916 10 2.69755C10 3.07357 9.93542 3.44142 9.80625 3.80109C9.67708 4.16076 9.45 4.55518 9.125 4.98433C8.8 5.41349 8.3625 5.89782 7.8125 6.43733C7.2625 6.97684 6.56667 7.61853 5.725 8.3624L5 9ZM5 7.67575C5.8 6.97275 6.45833 6.36989 6.975 5.86717C7.49167 5.36444 7.9 4.92711 8.2 4.55518C8.5 4.18324 8.70833 3.85218 8.825 3.56199C8.94167 3.2718 9 2.98365 9 2.69755C9 2.20708 8.83333 1.79837 8.5 1.47139C8.16667 1.14441 7.75 0.980927 7.25 0.980927C6.85833 0.980927 6.49583 1.08924 6.1625 1.30586C5.82917 1.52248 5.6 1.79837 5.475 2.13352H4.525C4.4 1.79837 4.17083 1.52248 3.8375 1.30586C3.50417 1.08924 3.14167 0.980927 2.75 0.980927C2.25 0.980927 1.83333 1.14441 1.5 1.47139C1.16667 1.79837 1 2.20708 1 2.69755C1 2.98365 1.05833 3.2718 1.175 3.56199C1.29167 3.85218 1.5 4.18324 1.8 4.55518C2.1 4.92711 2.50833 5.36444 3.025 5.86717C3.54167 6.36989 4.2 6.97275 5 7.67575Z" fill="#EF4444"/>
</svg>
